<svg id="arrow" xmlns="http://www.w3.org/2000/svg" width="13" height="16" viewBox="0 0 13 16">
  <g id="Polygon_10" data-name="Polygon 10" transform="translate(13) rotate(90)" fill="none">
    <path d="M7.148,1.384a1,1,0,0,1,1.7,0l6.21,10.092A1,1,0,0,1,14.21,13H1.79a1,1,0,0,1-.852-1.524Z" stroke="none"/>
    <path d="M 8 3.816082000732422 L 3.579132080078125 11.00000381469727 L 12.42086982727051 11.00000381469727 L 8 3.816082000732422 M 7.999999523162842 0.9080390930175781 C 8.328207015991211 0.9080390930175781 8.656414031982422 1.06667423248291 8.851659774780273 1.383943557739258 L 15.06208992004395 11.47590446472168 C 15.4721097946167 12.14217376708984 14.99275970458984 13.00000381469727 14.21042919158936 13.00000381469727 L 1.789559364318848 13.00000381469727 C 1.00723934173584 13.00000381469727 0.5278892517089844 12.14217376708984 0.9379091262817383 11.47590446472168 L 7.14833927154541 1.383943557739258 C 7.343584060668945 1.06667423248291 7.671792030334473 0.9080390930175781 7.999999523162842 0.9080390930175781 Z" stroke="none" fill="#fff"/>
  </g>
</svg>
