<svg xmlns="http://www.w3.org/2000/svg" width="24" height="24" viewBox="0 0 24 24">
  <g id="_イヤー_1-2" transform="translate(0.011 0.003)">
    <path id="Path_45723" data-name="Path 45723" d="M23.635,22.914c0-2.371-2.135-4.234-5.112-4.166C17.836,16,14.9,13.93,11.377,13.93c-3.99,0-7.228,2.658-7.293,5.95A3.662,3.662,0,0,0-.01,23.544h0c0,2.59,1.264,4.288,5.344,4.685,1.433.14,3.467.2,5.581.2V22.881L9.558,24.243a.9.9,0,1,1-1.268-1.268l2.891-2.891a.9.9,0,0,1,1.268,0l2.891,2.891a.9.9,0,1,1-1.268,1.268L12.71,22.881v5.534c2.4-.039,4.717-.154,6.19-.315,3.385-.376,4.735-1.967,4.735-4.553h0c0-.125-.011-.247-.018-.365.007-.09.018-.176.018-.265Z" transform="translate(0 -8.94)" fill="#fff"/>
    <rect id="Rectangle_1196" data-name="Rectangle 1196" width="24" height="24" transform="translate(-0.011 -0.003)" fill="none"/>
  </g>
</svg>
