<svg xmlns="http://www.w3.org/2000/svg" width="66" height="66" viewBox="0 0 66 66">
  <g id="Group_4349" data-name="Group 4349" transform="translate(-638 -437)">
    <circle id="Ellipse_28" data-name="Ellipse 28" cx="33" cy="33" r="33" transform="translate(638 437)" fill="#2b6737"/>
    <g id="_イヤー_1-2" transform="translate(654.01 453)">
      <path id="Path_45723" data-name="Path 45723" d="M33.99,26.848c0-3.41-3.07-6.088-7.35-5.99-.989-3.956-5.213-6.928-10.276-6.928-5.738,0-10.394,3.822-10.487,8.555A5.266,5.266,0,0,0-.01,27.755H0c0,3.724,1.818,6.165,7.685,6.737,2.06.2,4.986.288,8.025.288V26.8l-1.957,1.957a1.289,1.289,0,0,1-1.823-1.823l4.157-4.157a1.293,1.293,0,0,1,1.823,0l4.157,4.157a1.289,1.289,0,0,1-1.823,1.823L18.28,26.8V34.76c3.456-.057,6.784-.221,8.9-.453,4.867-.541,6.809-2.828,6.809-6.547h0c0-.18-.015-.355-.026-.525.01-.129.026-.252.026-.381Z" transform="translate(0 -6.755)" fill="#fff"/>
      <rect id="Rectangle_1196" data-name="Rectangle 1196" width="33.995" height="33.995" transform="translate(-0.005)" fill="none"/>
    </g>
  </g>
</svg>
