<svg xmlns="http://www.w3.org/2000/svg" width="24" height="24"><path data-name="Path 45723" d="M23.646 13.977c0-2.371-2.135-4.234-5.112-4.166-.687-2.748-3.623-4.818-7.146-4.818-3.99 0-7.228 2.658-7.293 5.95a3.662 3.662 0 00-4.094 3.664c0 2.59 1.264 4.288 5.344 4.685 1.433.14 3.467.2 5.581.2v-5.548l-1.357 1.362a.9.9 0 11-1.268-1.268l2.891-2.891a.9.9 0 011.268 0l2.891 2.891a.9.9 0 11-1.268 1.268l-1.362-1.362v5.534c2.4-.039 4.717-.154 6.19-.315 3.385-.376 4.735-1.967 4.735-4.553 0-.125-.011-.247-.018-.365.007-.09.018-.176.018-.265z" fill="#fff"/><path data-name="Rectangle 1196" fill="none" d="M0 0h24v24H0z"/></svg>