<svg xmlns="http://www.w3.org/2000/svg" width="66" height="66"><g data-name="Group 4349" transform="translate(-638 -437)"><circle data-name="Ellipse 28" cx="33" cy="33" r="33" transform="translate(638 437)" fill="#2b6737"/><path data-name="Path 45723" d="M688 473.093c0-3.41-3.07-6.088-7.35-5.99-.989-3.956-5.213-6.928-10.276-6.928-5.738 0-10.394 3.822-10.487 8.555A5.266 5.266 0 00654 474h.01c0 3.724 1.818 6.165 7.685 6.737 2.06.2 4.986.288 8.025.288v-7.98l-1.957 1.957a1.29 1.29 0 01-1.823-1.823l4.157-4.157a1.293 1.293 0 011.823 0l4.157 4.157a1.29 1.29 0 01-1.823 1.823l-1.964-1.957v7.96c3.456-.057 6.784-.221 8.9-.453 4.867-.541 6.809-2.828 6.809-6.547 0-.18-.015-.355-.026-.525.01-.129.026-.252.026-.381z" fill="#fff"/><path data-name="Rectangle 1196" fill="none" d="M654.005 453H688v33.995h-33.995z"/></g></svg>