<svg id="mc_symbol" xmlns="http://www.w3.org/2000/svg" width="48" height="31.747" viewBox="0 0 48 31.747">
  <g id="Group_133" data-name="Group 133" opacity="0">
    <rect id="Rectangle_725" data-name="Rectangle 725" width="48" height="31.747" fill="#fff"/>
  </g>
  <rect id="Rectangle_726" data-name="Rectangle 726" width="12.662" height="20.681" transform="translate(17.671 5.531)" fill="#ff5f00"/>
  <path id="Path_789" data-name="Path 789" d="M23.7,20.6a13.13,13.13,0,0,1,5.023-10.339,13.152,13.152,0,1,0,0,20.681A13.13,13.13,0,0,1,23.7,20.6Z" transform="translate(-4.725 -4.731)" fill="#eb001b"/>
  <path id="Path_790" data-name="Path 790" d="M120.062,64.871v-.424h.183V64.36h-.435v.088h.172v.424Zm.844,0V64.36h-.132l-.153.365-.153-.365h-.132v.511h.095v-.387l.142.332h.1l.142-.332v.387Z" transform="translate(-76.04 -40.848)" fill="#f79e1b"/>
  <path id="Path_791" data-name="Path 791" d="M86.97,20.6A13.152,13.152,0,0,1,65.69,30.934a13.152,13.152,0,0,0,0-20.681A13.152,13.152,0,0,1,86.97,20.592Z" transform="translate(-41.692 -4.722)" fill="#f79e1b"/>
</svg>
