<svg id="Group_135" data-name="Group 135" xmlns="http://www.w3.org/2000/svg" xmlns:xlink="http://www.w3.org/1999/xlink" width="57" height="18.409" viewBox="0 0 57 18.409">
  <defs>
    <clipPath id="clip-path">
      <rect id="Rectangle_727" data-name="Rectangle 727" width="57" height="18.409" fill="none"/>
    </clipPath>
  </defs>
  <g id="Group_134" data-name="Group 134" clip-path="url(#clip-path)">
    <path id="Path_792" data-name="Path 792" d="M21.642.325,14.18,18.13H9.311L5.639,3.921A1.951,1.951,0,0,0,4.544,2.357,19.284,19.284,0,0,0,0,.843L.109.325H7.946A2.146,2.146,0,0,1,10.07,2.141l1.939,10.3L16.8.325h4.839ZM40.719,12.317c.02-4.7-6.5-4.958-6.453-7.057.014-.639.622-1.318,1.954-1.491a8.69,8.69,0,0,1,4.541.8L41.569.789A12.376,12.376,0,0,0,37.261,0C32.708,0,29.5,2.42,29.477,5.886c-.029,2.563,2.287,3.994,4.032,4.845,1.8.872,2.4,1.433,2.391,2.213-.013,1.194-1.432,1.722-2.758,1.742a9.648,9.648,0,0,1-4.729-1.124l-.835,3.9a13.967,13.967,0,0,0,5.122.946c4.839,0,8-2.39,8.019-6.092M52.74,18.13H57L53.282.325H49.35a2.1,2.1,0,0,0-1.96,1.306l-6.912,16.5h4.836l.96-2.659h5.909ZM47.6,11.822l2.424-6.685,1.4,6.685ZM28.223.325l-3.809,17.8H19.809l3.81-17.8Z" fill="#1434cb"/>
  </g>
</svg>
