<svg xmlns="http://www.w3.org/2000/svg" width="48" height="31.747"><path data-name="Rectangle 726" fill="#ff5f00" d="M17.671 5.531h12.662v20.681H17.671z"/><path data-name="Path 789" d="M18.975 15.869A13.13 13.13 0 0123.998 5.53a13.152 13.152 0 100 20.681 13.13 13.13 0 01-5.023-10.342z" fill="#eb001b"/><path data-name="Path 790" d="M44.022 24.023v-.424h.183v-.087h-.435v.088h.172v.424zm.844 0v-.511h-.132l-.153.365-.153-.365h-.132v.511h.095v-.387l.142.332h.1l.142-.332v.387z" fill="#f79e1b"/><path data-name="Path 791" d="M45.278 15.878a13.152 13.152 0 01-21.28 10.334 13.152 13.152 0 000-20.681 13.152 13.152 0 0121.28 10.339z" fill="#f79e1b"/></svg>