<svg data-name="Group 135" xmlns="http://www.w3.org/2000/svg" width="57" height="18.409"><defs><clipPath id="a"><path data-name="Rectangle 727" fill="none" d="M0 0h57v18.409H0z"/></clipPath></defs><g data-name="Group 134" clip-path="url(#a)"><path data-name="Path 792" d="M21.642.325L14.18 18.13H9.311L5.639 3.921a1.951 1.951 0 00-1.095-1.564A19.284 19.284 0 000 .843L.109.325h7.837a2.146 2.146 0 012.124 1.816l1.939 10.3L16.8.325h4.839zm19.077 11.992c.02-4.7-6.5-4.958-6.453-7.057.014-.639.622-1.318 1.954-1.491a8.69 8.69 0 014.541.8l.808-3.78A12.376 12.376 0 0037.261 0c-4.553 0-7.761 2.42-7.784 5.886-.029 2.563 2.287 3.994 4.032 4.845 1.8.872 2.4 1.433 2.391 2.213-.013 1.194-1.432 1.722-2.758 1.742a9.648 9.648 0 01-4.729-1.124l-.835 3.9a13.967 13.967 0 005.122.946c4.839 0 8-2.39 8.019-6.092M52.74 18.13H57L53.282.325H49.35a2.1 2.1 0 00-1.96 1.306l-6.912 16.5h4.836l.96-2.659h5.909zm-5.14-6.308l2.424-6.685 1.4 6.685zM28.223.325l-3.809 17.8h-4.605l3.81-17.8z" fill="#1434cb"/></g></svg>